<svg width="56" height="55" viewBox="0 0 56 55" fill="none" xmlns="http://www.w3.org/2000/svg">
<g clip-path="url(#clip0_1_5304)">
<path fill-rule="evenodd" clip-rule="evenodd" d="M34.5987 21.9253C34.7148 23.2466 34.3517 24.6785 33.6728 25.9171C33.0003 27.1417 32.0249 28.1579 30.9174 28.6725L29.3243 29.4126L30.463 27.7927C31.3922 26.4746 31.8337 24.7204 31.7972 22.9576C31.7693 21.6782 31.49 20.3849 30.9625 19.243L34.0928 17.7906C34.1143 17.781 34.1325 17.7756 34.1411 17.7756C34.1529 17.7756 34.1691 17.782 34.1873 17.7906C34.2024 17.8024 34.2152 17.8121 34.2206 17.8207C34.2271 17.8293 34.2303 17.8454 34.2324 17.8637L34.5987 21.9253ZM20.9755 23.1488C20.9476 21.7663 21.2129 20.3902 21.7736 19.2236L18.6767 17.7896C18.6584 17.7799 18.6402 17.7745 18.6305 17.7745C18.624 17.7745 18.6154 17.7777 18.6058 17.781L18.5875 17.7906C18.566 17.8024 18.5542 17.8153 18.551 17.8207C18.5445 17.8293 18.5392 17.8454 18.5392 17.8637L18.146 22.2486C18.0364 23.47 18.4318 24.8246 19.1568 26.0181C19.8873 27.2244 20.9443 28.2535 22.1475 28.81L23.4473 29.4126L22.4944 28.058C21.5234 26.6755 21.0152 24.8966 20.9755 23.1488ZM30.0065 22.9941C29.9785 21.6879 29.6316 20.3752 28.9741 19.3246C28.9645 19.3149 28.9591 19.3031 28.9526 19.2913C28.9065 19.2183 28.8581 19.1484 28.8098 19.0786L26.4648 15.7442C26.4529 15.726 26.4401 15.7163 26.4347 15.7109C26.4261 15.7077 26.41 15.7045 26.3863 15.7045C26.3713 15.7045 26.3563 15.7077 26.3466 15.7077L26.3401 15.7109C26.3305 15.7174 26.3187 15.7292 26.3068 15.7442L23.776 19.3439C23.0692 20.3462 22.7351 21.7158 22.7651 23.1134C22.7952 24.5228 23.1981 25.9396 23.9618 27.0268L26.3068 30.3644C26.3187 30.3794 26.3316 30.3891 26.3401 30.3944V30.3977C26.3487 30.4009 26.3649 30.4009 26.3863 30.4009C26.411 30.4009 26.4261 30.4009 26.4347 30.3944C26.4411 30.3912 26.4529 30.3794 26.4648 30.3644L28.9956 26.7625C29.7025 25.7592 30.0344 24.3917 30.0065 22.9941ZM44.2151 25.4788C43.8746 38.0912 32.0077 37.8721 38.0738 52.5459C38.308 53.112 38.25 53.7028 37.9095 54.212C37.569 54.7212 37.0447 55.0005 36.4324 55.0005H17.9451C17.1137 55.0005 16.4133 54.4526 16.2189 53.6459L15.2263 49.5628C8.70363 50.8905 4.07804 50.6682 6.69699 44.5236C5.10392 43.979 4.584 42.3462 6.36827 41.6189C5.46378 41.3568 3.96847 40.1387 5.57658 38.754C4.01788 38.711 0.686731 38.6874 2.89747 35.1124C7.38878 29.3481 6.22863 27.7862 6.509 24.686C8.23204 5.65195 42.7263 2.12314 44.2151 25.4788ZM36.3798 21.7695L36.0178 17.7101C35.9877 17.3964 35.89 17.1074 35.732 16.8571C35.5709 16.6047 35.3518 16.3941 35.08 16.2395C34.8172 16.087 34.5219 15.9993 34.2185 15.9838C33.9198 15.972 33.6244 16.03 33.3441 16.16L30.0312 17.695L27.93 14.7108C27.7538 14.4552 27.5218 14.2575 27.2575 14.1168C26.9882 13.9778 26.6894 13.9055 26.3863 13.9062C26.1006 13.9062 25.8288 13.9675 25.5796 14.0856C25.5581 14.0953 25.5334 14.1039 25.513 14.1157C25.2509 14.2532 25.0232 14.4541 24.8405 14.7098L22.7426 17.6939L19.4297 16.1589C19.156 16.0302 18.8553 15.9697 18.5531 15.9827C18.2792 15.9945 18.0107 16.0676 17.7582 16.2051C17.7367 16.2137 17.712 16.2266 17.6916 16.2384C17.4241 16.3941 17.2039 16.6036 17.0428 16.8561C16.8803 17.1132 16.7823 17.4058 16.757 17.709L16.3639 22.0907C16.221 23.6988 16.7141 25.4369 17.6272 26.944C18.5349 28.4394 19.8648 29.7241 21.3998 30.4363L25.0962 32.1508C25.3798 32.2818 25.6752 32.3398 25.9728 32.327C26.1124 32.3205 26.2531 32.3001 26.3874 32.2604C26.5217 32.3001 26.6613 32.3216 26.8021 32.327C27.1007 32.3388 27.3961 32.2808 27.6765 32.1508L31.6715 30.2999C33.1389 29.621 34.4 28.3201 35.2465 26.7765C36.0844 25.25 36.5323 23.4571 36.3798 21.7695ZM23.9532 2.92129C24.8846 3.3542 25.6344 4.10615 26.0694 5.0375C26.1242 5.15889 26.2402 5.23193 26.3735 5.23193C26.5067 5.23193 26.6227 5.15889 26.6775 5.0375C27.1125 4.10615 27.8623 3.35313 28.7937 2.92129C28.9151 2.8665 28.9881 2.75049 28.9881 2.61729C28.9881 2.48301 28.9151 2.36807 28.7937 2.31006C27.8615 1.87683 27.1121 1.12857 26.6775 0.19707C26.6237 0.0735352 26.5077 0.000488281 26.3735 0.000488281C26.2392 0.000488281 26.1242 0.0735352 26.0662 0.194922C25.6333 1.12412 24.8846 1.87607 23.9532 2.30791C23.8947 2.33501 23.8453 2.3784 23.8108 2.43289C23.7763 2.48738 23.7582 2.55065 23.7588 2.61514C23.7588 2.75049 23.8318 2.8665 23.9532 2.92129ZM53.9744 22.8137C53.0438 22.3793 52.2958 21.6313 51.8614 20.7007C51.8034 20.5793 51.6874 20.5063 51.5542 20.5063C51.421 20.5063 51.305 20.5793 51.2502 20.7007C50.8159 21.6313 50.0678 22.3793 49.1372 22.8137C49.0787 22.8408 49.0292 22.8842 48.9948 22.9387C48.9603 22.9931 48.9422 23.0564 48.9428 23.1209C48.9428 23.2552 49.0158 23.368 49.1372 23.4249C50.0681 23.8589 50.8162 24.607 51.2502 25.5379C51.305 25.6593 51.421 25.7323 51.5542 25.7323C51.6874 25.7323 51.8034 25.6593 51.8614 25.5379C52.2958 24.6073 53.0438 23.8592 53.9744 23.4249C54.0958 23.3669 54.1689 23.2541 54.1689 23.1209C54.1689 22.9877 54.0958 22.8717 53.9744 22.8137Z" fill="#ADB0B7"/>
</g>
<defs>
<clipPath id="clip0_1_5304">
<rect width="55" height="55" fill="white" transform="translate(0.666016)"/>
</clipPath>
</defs>
</svg>
